,
  Hottest scene tracker on the net !!!   http://www.scenetime.com
 
         Please seed back after your download is completed

           Credit goes  to all seeders and  http://www.scenetime.com
 



...................................NFO:.................................................                                                                                                     
       
     
     
       
       
     
     
                                         
                                         
                EXVID                    
                                         
         
                                         
         Filled the Archives             
                                         
         
                                         
                With:                    
                                         
         
                                         
                                    
     E240                           
                                    
     SP               (C) 2009      
                                         
     
     
     
                                                                                  
                                                                                   
                The.Swan.Princess.1994.DVDRip.XviD-EXViD                            
                                                                                   
                                                                                  
     
                                                                                               
EXViD aims to iNTERNAL those releases which have been lost in the archives.
EXViD aims to PRE non-internal releases which have poor sources and are likely skipped by others. 
http://www.imdb.com/title/tt0111333/
Subtitles: None
Date: 2010.12

Director:
Richard Rich

Genres:
Animation | Family | Fantasy | Romance 

Plot: A power hungry sorcerer transforms a princess into a swan by day in this tale of 
everlasting love. 

Cast
Cast overview, first billed only:
Jack Palance 	Jack Palance 	... 	
Lord Rothbart (voice)
Howard McGillin 	Howard McGillin 	... 	
Adult Prince Derek (voice)
Michelle Nicastro 	Michelle Nicastro 	... 	
Adult Princess Odette (voice)
Liz Callaway 	Liz Callaway 	... 	
Princess Odette (singing voice)
John Cleese 	John Cleese 	... 	
Jean-Bob (voice)
Steven Wright 	Steven Wright 	... 	
Speed (voice)
Steve Vinovich 	Steve Vinovich 	... 	
Puffin (voice)
Mark Harelik 	Mark Harelik 	... 	
Lord Rogers (voice)
James Arrington 	James Arrington 	... 	
Chamberlain (voice)
Davis Gaines 	Davis Gaines 	... 	
Chamberlain (singing voice)
Joel McKinnon Miller 	Joel McKinnon Miller 	... 	
Bromley (voice)
Dakin Matthews 	Dakin Matthews 	... 	
King William (voice)
Sandy Duncan 	Sandy Duncan 	... 	
Queen Uberta (voice)
Brian Nissen 	Brian Nissen 	... 	
Narrator (voice)
Adam Wylie 	Adam Wylie 	... 	
Young Prince Derek (voice)
Cast
Cast overview, first billed only:
Jack Palance 	Jack Palance 	... 	
Lord Rothbart (voice)
Howard McGillin 	Howard McGillin 	... 	
Adult Prince Derek (voice)
Michelle Nicastro 	Michelle Nicastro 	... 	
Adult Princess Odette (voice)
Liz Callaway 	Liz Callaway 	... 	
Princess Odette (singing voice)
John Cleese 	John Cleese 	... 	
Jean-Bob (voice)
Steven Wright 	Steven Wright 	... 	
Speed (voice)
Steve Vinovich 	Steve Vinovich 	... 	
Puffin (voice)
Mark Harelik 	Mark Harelik 	... 	
Lord Rogers (voice)
James Arrington 	James Arrington 	... 	
Chamberlain (voice)
Davis Gaines 	Davis Gaines 	... 	
Chamberlain (singing voice)
Joel McKinnon Miller 	Joel McKinnon Miller 	... 	
Bromley (voice)
Dakin Matthews 	Dakin Matthews 	... 	
King William (voice)
Sandy Duncan 	Sandy Duncan 	... 	
Queen Uberta (voice)
Brian Nissen 	Brian Nissen 	... 	
Narrator (voice)
Adam Wylie 	Adam Wylie 	... 	
Young Prince Derek (voice)

Stats:
General
Format                           : AVI
Format/Info                      : Audio Video Interleave
File size                        : 699 MiB
Duration                         : 1h 25mn
Overall bit rate                 : 1 143 Kbps
Writing application              : VirtualDubMod 1.5.10.2 (build 2540/release)
Writing library                  : VirtualDubMod build 2540/release

Video
ID                               : 0
Format                           : MPEG-4 Visual
Format profile                   : Advanced Simple@L5
Format settings, BVOP            : Yes
Format settings, QPel            : No
Format settings, GMC             : No warppoints
Format settings, Matrix          : Default (H.263)
Muxing mode                      : Packed bitstream
Codec ID                         : XVID
Codec ID/Hint                    : XviD
Duration                         : 1h 25mn
Bit rate                         : 1 002 Kbps
Width                            : 640 pixels
Height                           : 352 pixels
Display aspect ratio             : 16:9
Frame rate                       : 25.000 fps
Resolution                       : 8 bits
Colorimetry                      : 4:2:0
Scan type                        : Progressive
Bits/(Pixel*Frame)               : 0.178
Stream size                      : 613 MiB (88%)
Writing library                  : XviD 1.2.1 (UTC 2008-12-04)

Audio
ID                               : 1
Format                           : MPEG Audio
Format version                   : Version 1
Format profile                   : Layer 3
Mode                             : Joint stereo
Format_Settings_ModeExtension    : MS Stereo
Codec ID                         : 55
Codec ID/Hint                    : MP3
Duration                         : 1h 25mn
Bit rate mode                    : Variable
Bit rate                         : 128 Kbps
Channel(s)                       : 2 channels
Sampling rate                    : 48.0 KHz
Stream size                      : 78.1 MiB (11%)
Alignment                        : Aligned on interleaves
Interleave, duration             : 24 ms (0.60 video frame)
Interleave, preload duration     : 490 ms
Writing library                  : LAME3.90.
Encoding settings                : -m j -V 4 -q 2 -lowpass 17.6 --abr 128




Release notes:
enjoy!

Looking for:
75TB+ Archives
                                                                                                    
Greets: CRBS EPiSODE FiCO FLS iLS KLASSiGER LiPSYNC MADE NODLABS RUNNER TNAN       
   

                                                                    ASCII DONE BY XX^NFO 2oo9